<?xml version="1.0" encoding="UTF-8" standalone="no"?>
<!-- Generator: Adobe Illustrator 24.3.0, SVG Export Plug-In . SVG Version: 6.00 Build 0)  -->

<svg
   sodipodi:docname="ventur-long-white.svg"
   xml:space="preserve"
   viewBox="0 0 739.86999 154.22"
   y="0px"
   x="0px"
   id="Layer_7"
   version="1.1"
   width="739.87"
   height="154.22"
   inkscape:version="1.1.1 (3bf5ae0d25, 2021-09-20)"
   xmlns:inkscape="http://www.inkscape.org/namespaces/inkscape"
   xmlns:sodipodi="http://sodipodi.sourceforge.net/DTD/sodipodi-0.dtd"
   xmlns="http://www.w3.org/2000/svg"
   xmlns:svg="http://www.w3.org/2000/svg"><defs
   id="defs45" /><sodipodi:namedview
   id="namedview43"
   pagecolor="#505050"
   bordercolor="#eeeeee"
   borderopacity="1"
   inkscape:pageshadow="0"
   inkscape:pageopacity="0"
   inkscape:pagecheckerboard="0"
   showgrid="false"
   inkscape:zoom="2.8053226"
   inkscape:cx="528.10326"
   inkscape:cy="136.16972"
   inkscape:window-width="3840"
   inkscape:window-height="2054"
   inkscape:window-x="-11"
   inkscape:window-y="-11"
   inkscape:window-maximized="1"
   inkscape:current-layer="g40" />
<style
   type="text/css"
   id="style2">
	.st0{fill:none;}
	.st1{fill:#FFFFFF;}
</style>
<g
   id="g40"
   style="fill:#ffffff"
   transform="translate(-77.95,-415.37)"
   inkscape:export-filename="C:\Users\patgr\Downloads\g40.png"
   inkscape:export-xdpi="622.48737"
   inkscape:export-ydpi="622.48737">
	
	<path
   class="st0"
   d="m 206.77,527.13 c -6.71,9.93 -16.21,17.82 -27.38,22.55 -6.24,2.64 -13.01,4.29 -20.09,4.75 l 5.66,-8.47 c 7.55,-1.37 14.55,-4.29 20.68,-8.42 8.7,-5.88 15.62,-14.21 19.76,-23.99 2.76,-6.52 4.28,-13.68 4.28,-21.22 0,-3.95 -0.43,-7.79 -1.22,-11.5 l 5.67,-8.49 c 2.13,6.28 3.28,13 3.28,19.98 -0.01,12.88 -3.93,24.88 -10.64,34.81 z m -75.85,-92.17 c 7.45,-3.15 15.65,-4.89 24.23,-4.89 12.88,0 24.88,3.92 34.81,10.63 6.28,4.24 11.74,9.61 16.11,15.8 h -9.81 c -5.41,-6.2 -12.19,-11.17 -19.88,-14.42 -6.52,-2.76 -13.68,-4.28 -21.22,-4.28 -11.31,0 -21.78,3.43 -30.48,9.31 -3.94,2.66 -7.51,5.83 -10.62,9.4 h -9.8 c 6.65,-9.46 15.87,-16.98 26.66,-21.55 z"
   id="path6"
   style="fill:#ffffff" />
	<path
   d="m 124.67,447.1 c 8.71,-5.88 19.18,-9.31 30.48,-9.31 7.54,0 14.7,1.53 21.22,4.28 7.68,3.25 14.47,8.22 19.88,14.42 h 9.81 c -4.36,-6.19 -9.82,-11.55 -16.11,-15.8 -9.93,-6.71 -21.93,-10.64 -34.81,-10.63 -8.58,0 -16.78,1.74 -24.23,4.89 -10.79,4.57 -20.01,12.08 -26.67,21.54 h 9.8 c 3.12,-3.56 6.69,-6.73 10.63,-9.39 z"
   id="path8"
   style="fill:#ffffff" />
	<path
   d="m 208.45,480.82 c 0.79,3.7 1.22,7.55 1.22,11.5 0,7.54 -1.53,14.7 -4.28,21.22 -4.14,9.78 -11.05,18.11 -19.76,23.99 -6.13,4.14 -13.13,7.05 -20.68,8.42 l -5.66,8.47 c 7.08,-0.47 13.85,-2.11 20.09,-4.75 11.18,-4.73 20.67,-12.62 27.38,-22.55 6.71,-9.93 10.63,-21.93 10.63,-34.81 0,-6.98 -1.15,-13.71 -3.28,-19.98 z"
   id="path10"
   style="fill:#ffffff" />
	<path
   d="m 145.82,518.5 -30.94,-46.75 9.89,0.19 21.29,32.17 4.65,-6.97 -21.78,-32.91 h -28.16 l 45.09,68.12 40.56,-60.74 9.63,-0.13 -49.84,74.63 c -4.28,-0.71 -8.4,-1.91 -12.28,-3.55 -9.78,-4.14 -18.11,-11.05 -23.99,-19.76 -5.88,-8.71 -9.31,-19.18 -9.31,-30.48 0,-4.21 0.48,-8.31 1.38,-12.24 l -5.58,-8.44 c -2.28,6.47 -3.52,13.44 -3.52,20.68 0,8.58 1.74,16.78 4.89,24.23 4.73,11.18 12.62,20.67 22.55,27.38 8.53,5.76 18.58,9.46 29.4,10.39 l 60.18,-90.1 h -27.85 z"
   id="path12"
   style="fill:#ffffff" />
	<path
   d="m 111.93,556.44 c 8.46,5.72 18.12,9.8 28.52,11.79 l 4.71,-7.05 c -5.99,-0.85 -11.73,-2.47 -17.12,-4.75 -12.45,-5.26 -23.05,-14.07 -30.53,-25.14 -7.48,-11.08 -11.85,-24.41 -11.85,-38.79 0,-9.59 1.94,-18.71 5.45,-27.01 0.16,-0.38 0.33,-0.74 0.5,-1.12 0.74,-1.67 1.54,-3.3 2.41,-4.89 5.34,-9.85 13,-18.28 22.24,-24.53 11.08,-7.48 24.41,-11.85 38.79,-11.85 9.59,0 18.71,1.94 27.01,5.45 12.45,5.26 23.05,14.07 30.53,25.14 7.48,11.08 11.85,24.41 11.85,38.79 0,9.59 -1.94,18.71 -5.45,27.01 -5.26,12.45 -14.07,23.05 -25.14,30.53 -11.08,7.48 -24.41,11.85 -38.79,11.85 -0.25,0 -0.49,-0.01 -0.74,-0.01 l -5.02,7.52 c 1.9,0.14 3.82,0.21 5.76,0.21 10.64,0 20.79,-2.16 30.02,-6.06 13.84,-5.86 25.61,-15.63 33.92,-27.93 8.31,-12.3 13.17,-27.16 13.17,-43.12 0,-10.64 -2.16,-20.79 -6.06,-30.02 -5.86,-13.84 -15.63,-25.61 -27.93,-33.92 -12.3,-8.31 -27.16,-13.17 -43.12,-13.17 -10.64,0 -20.79,2.16 -30.02,6.06 -13.84,5.86 -25.61,15.63 -33.92,27.93 -8.31,12.3 -13.17,27.16 -13.17,43.12 0,10.64 2.16,20.79 6.06,30.02 5.85,13.86 15.62,25.63 27.92,33.94 z"
   id="path14"
   style="fill:#ffffff" />
	<path
   class="st1"
   d="m 150.05,554.36 60.2,-90.13 h -0.33 l -60.18,90.1 c 0.11,0.01 0.21,0.02 0.31,0.03 z"
   id="path16"
   style="fill:#ffffff" />
	<polygon
   points="512.12,497.19 475.01,446.49 451.71,446.49 451.71,543.14 477.51,543.14 477.51,490.69 515.89,543.12 537.93,510.12 537.93,446.49 512.12,446.49 "
   id="polygon18"
   style="fill:#ffffff" />
	<polygon
   points="437.2,469.5 437.2,446.49 414.61,446.49 399.23,469.52 401.86,469.52 401.86,469.5 "
   id="polygon20"
   style="fill:#ffffff" />
	<polygon
   points="438.36,543.14 438.36,520.04 401.86,520.04 401.86,505.57 433.61,505.57 433.61,483.73 401.86,483.73 401.86,483.7 389.76,483.7 375.35,505.27 375.35,543.14 "
   id="polygon22"
   style="fill:#ffffff" />
	<polygon
   points="600.93,470.46 627.19,470.46 627.19,446.49 612.32,446.49 574.19,503.58 574.19,543.14 600.93,543.14 "
   id="polygon24"
   style="fill:#ffffff" />
	<polygon
   points="564.42,470.46 580.43,446.49 547.94,446.49 547.94,470.46 "
   id="polygon26"
   style="fill:#ffffff" />
	<path
   d="m 720.36,505.75 v -59.26 h -27.21 v 58.76 c 0,9.45 -6.09,15.55 -14.98,15.55 -8.89,0 -14.98,-6.1 -14.98,-15.55 v -58.76 h -27.21 v 59.26 c 0,23.78 17.55,39.83 42.19,39.83 6.59,0 12.65,-1.18 18.02,-3.32 l 24.15,-36.16 c 0,-0.12 0.02,-0.23 0.02,-0.35 z"
   id="path28"
   style="fill:#ffffff" />
	<path
   d="m 798.63,507.99 c 9.55,-5.72 15.34,-15.43 15.34,-27.3 0,-15.79 -9.25,-27.76 -23.22,-32.25 l -14.56,21.8 c 6.64,0.49 10.47,4.69 10.47,10.37 0,6.04 -4.28,10.53 -11.73,10.53 h -12.16 v -0.8 l -26.63,39.87 v 12.93 h 26.63 v -29.57 h 9.65 l 15.68,29.57 h 29.72 z"
   id="path30"
   style="fill:#ffffff" />
	<polygon
   points="760.16,446.49 736.14,446.49 736.14,482.45 "
   id="polygon32"
   style="fill:#ffffff" />
	<polygon
   points="284.65,491.87 301.3,466.95 286.67,445.05 253.38,445.05 "
   id="polygon34"
   style="fill:#ffffff" />
	<polyline
   points="382.9,445.38 350.54,444.81 301.88,517.67 318.43,542.45  "
   id="polyline36"
   style="fill:#ffffff" />
	<line
   class="st1"
   x1="350.54001"
   y1="444.81"
   x2="350.35999"
   y2="444.81"
   id="line38"
   style="fill:#ffffff" />
</g>
</svg>
